0
SECTION
2
HEADER
9
$INSUNITS
70
4
0
ENDSEC
0
SECTION
2
TABLES
0
TABLE
2
LTYPE
0
LTYPE
72
65
70
64
2
CONTINUOUS
3
______
73
0
40
0
0
ENDTAB
0
TABLE
2
LAYER
0
ENDTAB
0
ENDSEC
0
SECTION
2
ENTITIES
0
LINE
8
0
10
12.55
20
-2.525
11
25.55
21
-2.525
0
LINE
8
0
10
12.55
20
-16.525
11
25.55
21
-16.525
0
LINE
8
0
10
12.05
20
-3.025
11
12.05
21
-16.025
0
LINE
8
0
10
26.05
20
-3.025
11
26.05
21
-16.025
0
ARC
8
0
10
12.55
20
-3.025
40
0.5
50
90
51
180
0
ARC
8
0
10
25.55
20
-3.025
40
0.5
50
0
51
90
0
ARC
8
0
10
12.55
20
-16.025
40
0.5
50
180
51
270
0
ARC
8
0
10
25.55
20
-16.025
40
0.5
50
270
51
0
0
LINE
8
0
10
31.6
20
-2.525
11
44.6
21
-2.525
0
LINE
8
0
10
31.6
20
-16.525
11
44.6
21
-16.525
0
LINE
8
0
10
31.1
20
-3.025
11
31.1
21
-16.025
0
LINE
8
0
10
45.1
20
-3.025
11
45.1
21
-16.025
0
ARC
8
0
10
31.6
20
-3.025
40
0.5
50
90
51
180
0
ARC
8
0
10
44.6
20
-3.025
40
0.5
50
0
51
90
0
ARC
8
0
10
31.6
20
-16.025
40
0.5
50
180
51
270
0
ARC
8
0
10
44.6
20
-16.025
40
0.5
50
270
51
0
0
LINE
8
0
10
50.65
20
-2.525
11
63.65
21
-2.525
0
LINE
8
0
10
50.65
20
-16.525
11
63.65
21
-16.525
0
LINE
8
0
10
50.15
20
-3.025
11
50.15
21
-16.025
0
LINE
8
0
10
64.15
20
-3.025
11
64.15
21
-16.025
0
ARC
8
0
10
50.65
20
-3.025
40
0.5
50
90
51
180
0
ARC
8
0
10
63.65
20
-3.025
40
0.5
50
0
51
90
0
ARC
8
0
10
50.65
20
-16.025
40
0.5
50
180
51
270
0
ARC
8
0
10
63.65
20
-16.025
40
0.5
50
270
51
0
0
LINE
8
0
10
69.7
20
-2.525
11
82.7
21
-2.525
0
LINE
8
0
10
69.7
20
-16.525
11
82.7
21
-16.525
0
LINE
8
0
10
69.2
20
-3.025
11
69.2
21
-16.025
0
LINE
8
0
10
83.2
20
-3.025
11
83.2
21
-16.025
0
ARC
8
0
10
69.7
20
-3.025
40
0.5
50
90
51
180
0
ARC
8
0
10
82.7
20
-3.025
40
0.5
50
0
51
90
0
ARC
8
0
10
69.7
20
-16.025
40
0.5
50
180
51
270
0
ARC
8
0
10
82.7
20
-16.025
40
0.5
50
270
51
0
0
LINE
8
0
10
88.75
20
-2.525
11
101.75
21
-2.525
0
LINE
8
0
10
88.75
20
-16.525
11
101.75
21
-16.525
0
LINE
8
0
10
88.25
20
-3.025
11
88.25
21
-16.025
0
LINE
8
0
10
102.25
20
-3.025
11
102.25
21
-16.025
0
ARC
8
0
10
88.75
20
-3.025
40
0.5
50
90
51
180
0
ARC
8
0
10
101.75
20
-3.025
40
0.5
50
0
51
90
0
ARC
8
0
10
88.75
20
-16.025
40
0.5
50
180
51
270
0
ARC
8
0
10
101.75
20
-16.025
40
0.5
50
270
51
0
0
LINE
8
0
10
107.8
20
-2.525
11
120.8
21
-2.525
0
LINE
8
0
10
107.8
20
-16.525
11
120.8
21
-16.525
0
LINE
8
0
10
107.3
20
-3.025
11
107.3
21
-16.025
0
LINE
8
0
10
121.3
20
-3.025
11
121.3
21
-16.025
0
ARC
8
0
10
107.8
20
-3.025
40
0.5
50
90
51
180
0
ARC
8
0
10
120.8
20
-3.025
40
0.5
50
0
51
90
0
ARC
8
0
10
107.8
20
-16.025
40
0.5
50
180
51
270
0
ARC
8
0
10
120.8
20
-16.025
40
0.5
50
270
51
0
0
LINE
8
0
10
126.85
20
-2.525
11
139.85
21
-2.525
0
LINE
8
0
10
126.85
20
-16.525
11
139.85
21
-16.525
0
LINE
8
0
10
126.35
20
-3.025
11
126.35
21
-16.025
0
LINE
8
0
10
140.35
20
-3.025
11
140.35
21
-16.025
0
ARC
8
0
10
126.85
20
-3.025
40
0.5
50
90
51
180
0
ARC
8
0
10
139.85
20
-3.025
40
0.5
50
0
51
90
0
ARC
8
0
10
126.85
20
-16.025
40
0.5
50
180
51
270
0
ARC
8
0
10
139.85
20
-16.025
40
0.5
50
270
51
0
0
LINE
8
0
10
7.7875
20
-21.575
11
20.7875
21
-21.575
0
LINE
8
0
10
7.7875
20
-35.575
11
20.7875
21
-35.575
0
LINE
8
0
10
7.2875
20
-22.075
11
7.2875
21
-35.075
0
LINE
8
0
10
21.2875
20
-22.075
11
21.2875
21
-35.075
0
ARC
8
0
10
7.7875
20
-22.075
40
0.5
50
90
51
180
0
ARC
8
0
10
20.7875
20
-22.075
40
0.5
50
0
51
90
0
ARC
8
0
10
7.7875
20
-35.075
40
0.5
50
180
51
270
0
ARC
8
0
10
20.7875
20
-35.075
40
0.5
50
270
51
0
0
LINE
8
0
10
31.6
20
-21.575
11
44.6
21
-21.575
0
LINE
8
0
10
31.6
20
-35.575
11
44.6
21
-35.575
0
LINE
8
0
10
31.1
20
-22.075
11
31.1
21
-35.075
0
LINE
8
0
10
45.1
20
-22.075
11
45.1
21
-35.075
0
ARC
8
0
10
31.6
20
-22.075
40
0.5
50
90
51
180
0
ARC
8
0
10
44.6
20
-22.075
40
0.5
50
0
51
90
0
ARC
8
0
10
31.6
20
-35.075
40
0.5
50
180
51
270
0
ARC
8
0
10
44.6
20
-35.075
40
0.5
50
270
51
0
0
LINE
8
0
10
50.65
20
-21.575
11
63.65
21
-21.575
0
LINE
8
0
10
50.65
20
-35.575
11
63.65
21
-35.575
0
LINE
8
0
10
50.15
20
-22.075
11
50.15
21
-35.075
0
LINE
8
0
10
64.15
20
-22.075
11
64.15
21
-35.075
0
ARC
8
0
10
50.65
20
-22.075
40
0.5
50
90
51
180
0
ARC
8
0
10
63.65
20
-22.075
40
0.5
50
0
51
90
0
ARC
8
0
10
50.65
20
-35.075
40
0.5
50
180
51
270
0
ARC
8
0
10
63.65
20
-35.075
40
0.5
50
270
51
0
0
LINE
8
0
10
69.7
20
-21.575
11
82.7
21
-21.575
0
LINE
8
0
10
69.7
20
-35.575
11
82.7
21
-35.575
0
LINE
8
0
10
69.2
20
-22.075
11
69.2
21
-35.075
0
LINE
8
0
10
83.2
20
-22.075
11
83.2
21
-35.075
0
ARC
8
0
10
69.7
20
-22.075
40
0.5
50
90
51
180
0
ARC
8
0
10
82.7
20
-22.075
40
0.5
50
0
51
90
0
ARC
8
0
10
69.7
20
-35.075
40
0.5
50
180
51
270
0
ARC
8
0
10
82.7
20
-35.075
40
0.5
50
270
51
0
0
LINE
8
0
10
88.75
20
-21.575
11
101.75
21
-21.575
0
LINE
8
0
10
88.75
20
-35.575
11
101.75
21
-35.575
0
LINE
8
0
10
88.25
20
-22.075
11
88.25
21
-35.075
0
LINE
8
0
10
102.25
20
-22.075
11
102.25
21
-35.075
0
ARC
8
0
10
88.75
20
-22.075
40
0.5
50
90
51
180
0
ARC
8
0
10
101.75
20
-22.075
40
0.5
50
0
51
90
0
ARC
8
0
10
88.75
20
-35.075
40
0.5
50
180
51
270
0
ARC
8
0
10
101.75
20
-35.075
40
0.5
50
270
51
0
0
LINE
8
0
10
107.8
20
-21.575
11
120.8
21
-21.575
0
LINE
8
0
10
107.8
20
-35.575
11
120.8
21
-35.575
0
LINE
8
0
10
107.3
20
-22.075
11
107.3
21
-35.075
0
LINE
8
0
10
121.3
20
-22.075
11
121.3
21
-35.075
0
ARC
8
0
10
107.8
20
-22.075
40
0.5
50
90
51
180
0
ARC
8
0
10
120.8
20
-22.075
40
0.5
50
0
51
90
0
ARC
8
0
10
107.8
20
-35.075
40
0.5
50
180
51
270
0
ARC
8
0
10
120.8
20
-35.075
40
0.5
50
270
51
0
0
LINE
8
0
10
126.85
20
-21.575
11
139.85
21
-21.575
0
LINE
8
0
10
126.85
20
-35.575
11
139.85
21
-35.575
0
LINE
8
0
10
126.35
20
-22.075
11
126.35
21
-35.075
0
LINE
8
0
10
140.35
20
-22.075
11
140.35
21
-35.075
0
ARC
8
0
10
126.85
20
-22.075
40
0.5
50
90
51
180
0
ARC
8
0
10
139.85
20
-22.075
40
0.5
50
0
51
90
0
ARC
8
0
10
126.85
20
-35.075
40
0.5
50
180
51
270
0
ARC
8
0
10
139.85
20
-35.075
40
0.5
50
270
51
0
0
LINE
8
0
10
7.7875
20
-40.625
11
20.7875
21
-40.625
0
LINE
8
0
10
7.7875
20
-54.625
11
20.7875
21
-54.625
0
LINE
8
0
10
7.2875
20
-41.125
11
7.2875
21
-54.125
0
LINE
8
0
10
21.2875
20
-41.125
11
21.2875
21
-54.125
0
ARC
8
0
10
7.7875
20
-41.125
40
0.5
50
90
51
180
0
ARC
8
0
10
20.7875
20
-41.125
40
0.5
50
0
51
90
0
ARC
8
0
10
7.7875
20
-54.125
40
0.5
50
180
51
270
0
ARC
8
0
10
20.7875
20
-54.125
40
0.5
50
270
51
0
0
LINE
8
0
10
31.6
20
-40.625
11
44.6
21
-40.625
0
LINE
8
0
10
31.6
20
-54.625
11
44.6
21
-54.625
0
LINE
8
0
10
31.1
20
-41.125
11
31.1
21
-54.125
0
LINE
8
0
10
45.1
20
-41.125
11
45.1
21
-54.125
0
ARC
8
0
10
31.6
20
-41.125
40
0.5
50
90
51
180
0
ARC
8
0
10
44.6
20
-41.125
40
0.5
50
0
51
90
0
ARC
8
0
10
31.6
20
-54.125
40
0.5
50
180
51
270
0
ARC
8
0
10
44.6
20
-54.125
40
0.5
50
270
51
0
0
LINE
8
0
10
50.65
20
-40.625
11
63.65
21
-40.625
0
LINE
8
0
10
50.65
20
-54.625
11
63.65
21
-54.625
0
LINE
8
0
10
50.15
20
-41.125
11
50.15
21
-54.125
0
LINE
8
0
10
64.15
20
-41.125
11
64.15
21
-54.125
0
ARC
8
0
10
50.65
20
-41.125
40
0.5
50
90
51
180
0
ARC
8
0
10
63.65
20
-41.125
40
0.5
50
0
51
90
0
ARC
8
0
10
50.65
20
-54.125
40
0.5
50
180
51
270
0
ARC
8
0
10
63.65
20
-54.125
40
0.5
50
270
51
0
0
LINE
8
0
10
69.7
20
-40.625
11
82.7
21
-40.625
0
LINE
8
0
10
69.7
20
-54.625
11
82.7
21
-54.625
0
LINE
8
0
10
69.2
20
-41.125
11
69.2
21
-54.125
0
LINE
8
0
10
83.2
20
-41.125
11
83.2
21
-54.125
0
ARC
8
0
10
69.7
20
-41.125
40
0.5
50
90
51
180
0
ARC
8
0
10
82.7
20
-41.125
40
0.5
50
0
51
90
0
ARC
8
0
10
69.7
20
-54.125
40
0.5
50
180
51
270
0
ARC
8
0
10
82.7
20
-54.125
40
0.5
50
270
51
0
0
LINE
8
0
10
88.75
20
-40.625
11
101.75
21
-40.625
0
LINE
8
0
10
88.75
20
-54.625
11
101.75
21
-54.625
0
LINE
8
0
10
88.25
20
-41.125
11
88.25
21
-54.125
0
LINE
8
0
10
102.25
20
-41.125
11
102.25
21
-54.125
0
ARC
8
0
10
88.75
20
-41.125
40
0.5
50
90
51
180
0
ARC
8
0
10
101.75
20
-41.125
40
0.5
50
0
51
90
0
ARC
8
0
10
88.75
20
-54.125
40
0.5
50
180
51
270
0
ARC
8
0
10
101.75
20
-54.125
40
0.5
50
270
51
0
0
LINE
8
0
10
107.8
20
-40.625
11
120.8
21
-40.625
0
LINE
8
0
10
107.8
20
-54.625
11
120.8
21
-54.625
0
LINE
8
0
10
107.3
20
-41.125
11
107.3
21
-54.125
0
LINE
8
0
10
121.3
20
-41.125
11
121.3
21
-54.125
0
ARC
8
0
10
107.8
20
-41.125
40
0.5
50
90
51
180
0
ARC
8
0
10
120.8
20
-41.125
40
0.5
50
0
51
90
0
ARC
8
0
10
107.8
20
-54.125
40
0.5
50
180
51
270
0
ARC
8
0
10
120.8
20
-54.125
40
0.5
50
270
51
0
0
LINE
8
0
10
140.35
20
-50.65
11
140.35
21
-63.65
0
LINE
8
0
10
126.35
20
-50.65
11
126.35
21
-63.65
0
LINE
8
0
10
139.85
20
-50.15
11
126.85
21
-50.15
0
LINE
8
0
10
139.85
20
-64.15
11
126.85
21
-64.15
0
ARC
8
0
10
139.85
20
-50.65
40
0.5
50
0
51
90
0
ARC
8
0
10
139.85
20
-63.65
40
0.5
50
270
51
0
0
ARC
8
0
10
126.85
20
-50.65
40
0.5
50
90
51
180
0
ARC
8
0
10
126.85
20
-63.65
40
0.5
50
180
51
270
0
LINE
8
0
10
127.35
20
-72.088
11
127.35
21
-66.088
0
LINE
8
0
10
142.35
20
-72.088
11
142.35
21
-66.088
0
LINE
8
0
10
127.85
20
-72.588
11
141.85
21
-72.588
0
LINE
8
0
10
127.85
20
-65.588
11
141.85
21
-65.588
0
ARC
8
0
10
127.85
20
-72.088
40
0.5
50
180
51
270
0
ARC
8
0
10
127.85
20
-66.088
40
0.5
50
90
51
180
0
ARC
8
0
10
141.85
20
-72.088
40
0.5
50
270
51
0
0
ARC
8
0
10
141.85
20
-66.088
40
0.5
50
0
51
90
0
LINE
8
0
10
127.35
20
-48.212
11
127.35
21
-42.212
0
LINE
8
0
10
142.35
20
-48.212
11
142.35
21
-42.212
0
LINE
8
0
10
127.85
20
-48.712
11
141.85
21
-48.712
0
LINE
8
0
10
127.85
20
-41.712
11
141.85
21
-41.712
0
ARC
8
0
10
127.85
20
-48.212
40
0.5
50
180
51
270
0
ARC
8
0
10
127.85
20
-42.212
40
0.5
50
90
51
180
0
ARC
8
0
10
141.85
20
-48.212
40
0.5
50
270
51
0
0
ARC
8
0
10
141.85
20
-42.212
40
0.5
50
0
51
90
0
LINE
8
0
10
7.7875
20
-59.675
11
20.7875
21
-59.675
0
LINE
8
0
10
7.7875
20
-73.675
11
20.7875
21
-73.675
0
LINE
8
0
10
7.2875
20
-60.175
11
7.2875
21
-73.175
0
LINE
8
0
10
21.2875
20
-60.175
11
21.2875
21
-73.175
0
ARC
8
0
10
7.7875
20
-60.175
40
0.5
50
90
51
180
0
ARC
8
0
10
20.7875
20
-60.175
40
0.5
50
0
51
90
0
ARC
8
0
10
7.7875
20
-73.175
40
0.5
50
180
51
270
0
ARC
8
0
10
20.7875
20
-73.175
40
0.5
50
270
51
0
0
LINE
8
0
10
31.6
20
-59.675
11
44.6
21
-59.675
0
LINE
8
0
10
31.6
20
-73.675
11
44.6
21
-73.675
0
LINE
8
0
10
31.1
20
-60.175
11
31.1
21
-73.175
0
LINE
8
0
10
45.1
20
-60.175
11
45.1
21
-73.175
0
ARC
8
0
10
31.6
20
-60.175
40
0.5
50
90
51
180
0
ARC
8
0
10
44.6
20
-60.175
40
0.5
50
0
51
90
0
ARC
8
0
10
31.6
20
-73.175
40
0.5
50
180
51
270
0
ARC
8
0
10
44.6
20
-73.175
40
0.5
50
270
51
0
0
LINE
8
0
10
50.65
20
-59.675
11
63.65
21
-59.675
0
LINE
8
0
10
50.65
20
-73.675
11
63.65
21
-73.675
0
LINE
8
0
10
50.15
20
-60.175
11
50.15
21
-73.175
0
LINE
8
0
10
64.15
20
-60.175
11
64.15
21
-73.175
0
ARC
8
0
10
50.65
20
-60.175
40
0.5
50
90
51
180
0
ARC
8
0
10
63.65
20
-60.175
40
0.5
50
0
51
90
0
ARC
8
0
10
50.65
20
-73.175
40
0.5
50
180
51
270
0
ARC
8
0
10
63.65
20
-73.175
40
0.5
50
270
51
0
0
LINE
8
0
10
69.7
20
-59.675
11
82.7
21
-59.675
0
LINE
8
0
10
69.7
20
-73.675
11
82.7
21
-73.675
0
LINE
8
0
10
69.2
20
-60.175
11
69.2
21
-73.175
0
LINE
8
0
10
83.2
20
-60.175
11
83.2
21
-73.175
0
ARC
8
0
10
69.7
20
-60.175
40
0.5
50
90
51
180
0
ARC
8
0
10
82.7
20
-60.175
40
0.5
50
0
51
90
0
ARC
8
0
10
69.7
20
-73.175
40
0.5
50
180
51
270
0
ARC
8
0
10
82.7
20
-73.175
40
0.5
50
270
51
0
0
LINE
8
0
10
88.75
20
-59.675
11
101.75
21
-59.675
0
LINE
8
0
10
88.75
20
-73.675
11
101.75
21
-73.675
0
LINE
8
0
10
88.25
20
-60.175
11
88.25
21
-73.175
0
LINE
8
0
10
102.25
20
-60.175
11
102.25
21
-73.175
0
ARC
8
0
10
88.75
20
-60.175
40
0.5
50
90
51
180
0
ARC
8
0
10
101.75
20
-60.175
40
0.5
50
0
51
90
0
ARC
8
0
10
88.75
20
-73.175
40
0.5
50
180
51
270
0
ARC
8
0
10
101.75
20
-73.175
40
0.5
50
270
51
0
0
LINE
8
0
10
107.8
20
-59.675
11
120.8
21
-59.675
0
LINE
8
0
10
107.8
20
-73.675
11
120.8
21
-73.675
0
LINE
8
0
10
107.3
20
-60.175
11
107.3
21
-73.175
0
LINE
8
0
10
121.3
20
-60.175
11
121.3
21
-73.175
0
ARC
8
0
10
107.8
20
-60.175
40
0.5
50
90
51
180
0
ARC
8
0
10
120.8
20
-60.175
40
0.5
50
0
51
90
0
ARC
8
0
10
107.8
20
-73.175
40
0.5
50
180
51
270
0
ARC
8
0
10
120.8
20
-73.175
40
0.5
50
270
51
0
0
LINE
8
0
10
12.55
20
-78.725
11
25.55
21
-78.725
0
LINE
8
0
10
12.55
20
-92.725
11
25.55
21
-92.725
0
LINE
8
0
10
12.05
20
-79.225
11
12.05
21
-92.225
0
LINE
8
0
10
26.05
20
-79.225
11
26.05
21
-92.225
0
ARC
8
0
10
12.55
20
-79.225
40
0.5
50
90
51
180
0
ARC
8
0
10
25.55
20
-79.225
40
0.5
50
0
51
90
0
ARC
8
0
10
12.55
20
-92.225
40
0.5
50
180
51
270
0
ARC
8
0
10
25.55
20
-92.225
40
0.5
50
270
51
0
0
LINE
8
0
10
31.6
20
-78.725
11
44.6
21
-78.725
0
LINE
8
0
10
31.6
20
-92.725
11
44.6
21
-92.725
0
LINE
8
0
10
31.1
20
-79.225
11
31.1
21
-92.225
0
LINE
8
0
10
45.1
20
-79.225
11
45.1
21
-92.225
0
ARC
8
0
10
31.6
20
-79.225
40
0.5
50
90
51
180
0
ARC
8
0
10
44.6
20
-79.225
40
0.5
50
0
51
90
0
ARC
8
0
10
31.6
20
-92.225
40
0.5
50
180
51
270
0
ARC
8
0
10
44.6
20
-92.225
40
0.5
50
270
51
0
0
LINE
8
0
10
50.65
20
-78.725
11
63.65
21
-78.725
0
LINE
8
0
10
50.65
20
-92.725
11
63.65
21
-92.725
0
LINE
8
0
10
50.15
20
-79.225
11
50.15
21
-92.225
0
LINE
8
0
10
64.15
20
-79.225
11
64.15
21
-92.225
0
ARC
8
0
10
50.65
20
-79.225
40
0.5
50
90
51
180
0
ARC
8
0
10
63.65
20
-79.225
40
0.5
50
0
51
90
0
ARC
8
0
10
50.65
20
-92.225
40
0.5
50
180
51
270
0
ARC
8
0
10
63.65
20
-92.225
40
0.5
50
270
51
0
0
LINE
8
0
10
69.7
20
-78.725
11
82.7
21
-78.725
0
LINE
8
0
10
69.7
20
-92.725
11
82.7
21
-92.725
0
LINE
8
0
10
69.2
20
-79.225
11
69.2
21
-92.225
0
LINE
8
0
10
83.2
20
-79.225
11
83.2
21
-92.225
0
ARC
8
0
10
69.7
20
-79.225
40
0.5
50
90
51
180
0
ARC
8
0
10
82.7
20
-79.225
40
0.5
50
0
51
90
0
ARC
8
0
10
69.7
20
-92.225
40
0.5
50
180
51
270
0
ARC
8
0
10
82.7
20
-92.225
40
0.5
50
270
51
0
0
LINE
8
0
10
98.275
20
-78.725
11
111.275
21
-78.725
0
LINE
8
0
10
98.275
20
-92.725
11
111.275
21
-92.725
0
LINE
8
0
10
97.775
20
-79.225
11
97.775
21
-92.225
0
LINE
8
0
10
111.775
20
-79.225
11
111.775
21
-92.225
0
ARC
8
0
10
98.275
20
-79.225
40
0.5
50
90
51
180
0
ARC
8
0
10
111.275
20
-79.225
40
0.5
50
0
51
90
0
ARC
8
0
10
98.275
20
-92.225
40
0.5
50
180
51
270
0
ARC
8
0
10
111.275
20
-92.225
40
0.5
50
270
51
0
0
LINE
8
0
10
89.837
20
-79.725
11
95.837
21
-79.725
0
LINE
8
0
10
89.837
20
-94.725
11
95.837
21
-94.725
0
LINE
8
0
10
89.337
20
-80.225
11
89.337
21
-94.225
0
LINE
8
0
10
96.337
20
-80.225
11
96.337
21
-94.225
0
ARC
8
0
10
89.837
20
-80.225
40
0.5
50
90
51
180
0
ARC
8
0
10
95.837
20
-80.225
40
0.5
50
0
51
90
0
ARC
8
0
10
89.837
20
-94.225
40
0.5
50
180
51
270
0
ARC
8
0
10
95.837
20
-94.225
40
0.5
50
270
51
0
0
LINE
8
0
10
113.713
20
-79.725
11
119.713
21
-79.725
0
LINE
8
0
10
113.713
20
-94.725
11
119.713
21
-94.725
0
LINE
8
0
10
113.213
20
-80.225
11
113.213
21
-94.225
0
LINE
8
0
10
120.213
20
-80.225
11
120.213
21
-94.225
0
ARC
8
0
10
113.713
20
-80.225
40
0.5
50
90
51
180
0
ARC
8
0
10
119.713
20
-80.225
40
0.5
50
0
51
90
0
ARC
8
0
10
113.713
20
-94.225
40
0.5
50
180
51
270
0
ARC
8
0
10
119.713
20
-94.225
40
0.5
50
270
51
0
0
LINE
8
0
10
126.85
20
-78.725
11
139.85
21
-78.725
0
LINE
8
0
10
126.85
20
-92.725
11
139.85
21
-92.725
0
LINE
8
0
10
126.35
20
-79.225
11
126.35
21
-92.225
0
LINE
8
0
10
140.35
20
-79.225
11
140.35
21
-92.225
0
ARC
8
0
10
126.85
20
-79.225
40
0.5
50
90
51
180
0
ARC
8
0
10
139.85
20
-79.225
40
0.5
50
0
51
90
0
ARC
8
0
10
126.85
20
-92.225
40
0.5
50
180
51
270
0
ARC
8
0
10
139.85
20
-92.225
40
0.5
50
270
51
0
0
LINE
8
0
10
0
20
-95.25
11
142.875
21
-95.25
0
LINE
8
0
10
0
20
0
11
142.875
21
0
0
LINE
8
0
10
0
20
-95.25
11
0
21
0
0
LINE
8
0
10
142.875
20
-95.25
11
142.875
21
0
0
ENDSEC
0
EOF