<svg width="142.875mm" height="95.25mm" viewBox="0 0 142.875 95.25" xmlns="http://www.w3.org/2000/svg"><g id="svgGroup" stroke-linecap="round" fill-rule="evenodd" font-size="9pt" stroke="#000" stroke-width="0.25mm" fill="none" style="stroke:#000;stroke-width:0.25mm;fill:none"><path d="M 0 95.25 L 142.875 95.25 L 142.875 0 L 0 0 L 0 95.25 Z M 7.788 21.575 L 20.788 21.575 A 0.5 0.5 0 0 1 21.288 22.075 L 21.288 35.075 A 0.5 0.5 0 0 1 20.788 35.575 L 7.788 35.575 A 0.5 0.5 0 0 1 7.288 35.075 L 7.288 22.075 A 0.5 0.5 0 0 1 7.788 21.575 Z M 31.6 21.575 L 44.6 21.575 A 0.5 0.5 0 0 1 45.1 22.075 L 45.1 35.075 A 0.5 0.5 0 0 1 44.6 35.575 L 31.6 35.575 A 0.5 0.5 0 0 1 31.1 35.075 L 31.1 22.075 A 0.5 0.5 0 0 1 31.6 21.575 Z M 50.65 21.575 L 63.65 21.575 A 0.5 0.5 0 0 1 64.15 22.075 L 64.15 35.075 A 0.5 0.5 0 0 1 63.65 35.575 L 50.65 35.575 A 0.5 0.5 0 0 1 50.15 35.075 L 50.15 22.075 A 0.5 0.5 0 0 1 50.65 21.575 Z M 69.7 21.575 L 82.7 21.575 A 0.5 0.5 0 0 1 83.2 22.075 L 83.2 35.075 A 0.5 0.5 0 0 1 82.7 35.575 L 69.7 35.575 A 0.5 0.5 0 0 1 69.2 35.075 L 69.2 22.075 A 0.5 0.5 0 0 1 69.7 21.575 Z M 88.75 21.575 L 101.75 21.575 A 0.5 0.5 0 0 1 102.25 22.075 L 102.25 35.075 A 0.5 0.5 0 0 1 101.75 35.575 L 88.75 35.575 A 0.5 0.5 0 0 1 88.25 35.075 L 88.25 22.075 A 0.5 0.5 0 0 1 88.75 21.575 Z M 107.8 21.575 L 120.8 21.575 A 0.5 0.5 0 0 1 121.3 22.075 L 121.3 35.075 A 0.5 0.5 0 0 1 120.8 35.575 L 107.8 35.575 A 0.5 0.5 0 0 1 107.3 35.075 L 107.3 22.075 A 0.5 0.5 0 0 1 107.8 21.575 Z M 126.85 21.575 L 139.85 21.575 A 0.5 0.5 0 0 1 140.35 22.075 L 140.35 35.075 A 0.5 0.5 0 0 1 139.85 35.575 L 126.85 35.575 A 0.5 0.5 0 0 1 126.35 35.075 L 126.35 22.075 A 0.5 0.5 0 0 1 126.85 21.575 Z M 7.788 40.625 L 20.788 40.625 A 0.5 0.5 0 0 1 21.288 41.125 L 21.288 54.125 A 0.5 0.5 0 0 1 20.788 54.625 L 7.788 54.625 A 0.5 0.5 0 0 1 7.288 54.125 L 7.288 41.125 A 0.5 0.5 0 0 1 7.788 40.625 Z M 31.6 40.625 L 44.6 40.625 A 0.5 0.5 0 0 1 45.1 41.125 L 45.1 54.125 A 0.5 0.5 0 0 1 44.6 54.625 L 31.6 54.625 A 0.5 0.5 0 0 1 31.1 54.125 L 31.1 41.125 A 0.5 0.5 0 0 1 31.6 40.625 Z M 50.65 40.625 L 63.65 40.625 A 0.5 0.5 0 0 1 64.15 41.125 L 64.15 54.125 A 0.5 0.5 0 0 1 63.65 54.625 L 50.65 54.625 A 0.5 0.5 0 0 1 50.15 54.125 L 50.15 41.125 A 0.5 0.5 0 0 1 50.65 40.625 Z M 69.7 40.625 L 82.7 40.625 A 0.5 0.5 0 0 1 83.2 41.125 L 83.2 54.125 A 0.5 0.5 0 0 1 82.7 54.625 L 69.7 54.625 A 0.5 0.5 0 0 1 69.2 54.125 L 69.2 41.125 A 0.5 0.5 0 0 1 69.7 40.625 Z M 88.75 40.625 L 101.75 40.625 A 0.5 0.5 0 0 1 102.25 41.125 L 102.25 54.125 A 0.5 0.5 0 0 1 101.75 54.625 L 88.75 54.625 A 0.5 0.5 0 0 1 88.25 54.125 L 88.25 41.125 A 0.5 0.5 0 0 1 88.75 40.625 Z M 107.8 40.625 L 120.8 40.625 A 0.5 0.5 0 0 1 121.3 41.125 L 121.3 54.125 A 0.5 0.5 0 0 1 120.8 54.625 L 107.8 54.625 A 0.5 0.5 0 0 1 107.3 54.125 L 107.3 41.125 A 0.5 0.5 0 0 1 107.8 40.625 Z M 140.35 50.65 L 140.35 63.65 A 0.5 0.5 0 0 1 139.85 64.15 L 126.85 64.15 A 0.5 0.5 0 0 1 126.35 63.65 L 126.35 50.65 A 0.5 0.5 0 0 1 126.85 50.15 L 139.85 50.15 A 0.5 0.5 0 0 1 140.35 50.65 Z M 7.788 59.675 L 20.788 59.675 A 0.5 0.5 0 0 1 21.288 60.175 L 21.288 73.175 A 0.5 0.5 0 0 1 20.788 73.675 L 7.788 73.675 A 0.5 0.5 0 0 1 7.288 73.175 L 7.288 60.175 A 0.5 0.5 0 0 1 7.788 59.675 Z M 31.6 59.675 L 44.6 59.675 A 0.5 0.5 0 0 1 45.1 60.175 L 45.1 73.175 A 0.5 0.5 0 0 1 44.6 73.675 L 31.6 73.675 A 0.5 0.5 0 0 1 31.1 73.175 L 31.1 60.175 A 0.5 0.5 0 0 1 31.6 59.675 Z M 50.65 59.675 L 63.65 59.675 A 0.5 0.5 0 0 1 64.15 60.175 L 64.15 73.175 A 0.5 0.5 0 0 1 63.65 73.675 L 50.65 73.675 A 0.5 0.5 0 0 1 50.15 73.175 L 50.15 60.175 A 0.5 0.5 0 0 1 50.65 59.675 Z M 69.7 59.675 L 82.7 59.675 A 0.5 0.5 0 0 1 83.2 60.175 L 83.2 73.175 A 0.5 0.5 0 0 1 82.7 73.675 L 69.7 73.675 A 0.5 0.5 0 0 1 69.2 73.175 L 69.2 60.175 A 0.5 0.5 0 0 1 69.7 59.675 Z M 88.75 59.675 L 101.75 59.675 A 0.5 0.5 0 0 1 102.25 60.175 L 102.25 73.175 A 0.5 0.5 0 0 1 101.75 73.675 L 88.75 73.675 A 0.5 0.5 0 0 1 88.25 73.175 L 88.25 60.175 A 0.5 0.5 0 0 1 88.75 59.675 Z M 107.8 59.675 L 120.8 59.675 A 0.5 0.5 0 0 1 121.3 60.175 L 121.3 73.175 A 0.5 0.5 0 0 1 120.8 73.675 L 107.8 73.675 A 0.5 0.5 0 0 1 107.3 73.175 L 107.3 60.175 A 0.5 0.5 0 0 1 107.8 59.675 Z M 12.55 78.725 L 25.55 78.725 A 0.5 0.5 0 0 1 26.05 79.225 L 26.05 92.225 A 0.5 0.5 0 0 1 25.55 92.725 L 12.55 92.725 A 0.5 0.5 0 0 1 12.05 92.225 L 12.05 79.225 A 0.5 0.5 0 0 1 12.55 78.725 Z M 31.6 78.725 L 44.6 78.725 A 0.5 0.5 0 0 1 45.1 79.225 L 45.1 92.225 A 0.5 0.5 0 0 1 44.6 92.725 L 31.6 92.725 A 0.5 0.5 0 0 1 31.1 92.225 L 31.1 79.225 A 0.5 0.5 0 0 1 31.6 78.725 Z M 50.65 78.725 L 63.65 78.725 A 0.5 0.5 0 0 1 64.15 79.225 L 64.15 92.225 A 0.5 0.5 0 0 1 63.65 92.725 L 50.65 92.725 A 0.5 0.5 0 0 1 50.15 92.225 L 50.15 79.225 A 0.5 0.5 0 0 1 50.65 78.725 Z M 69.7 78.725 L 82.7 78.725 A 0.5 0.5 0 0 1 83.2 79.225 L 83.2 92.225 A 0.5 0.5 0 0 1 82.7 92.725 L 69.7 92.725 A 0.5 0.5 0 0 1 69.2 92.225 L 69.2 79.225 A 0.5 0.5 0 0 1 69.7 78.725 Z M 98.275 78.725 L 111.275 78.725 A 0.5 0.5 0 0 1 111.775 79.225 L 111.775 92.225 A 0.5 0.5 0 0 1 111.275 92.725 L 98.275 92.725 A 0.5 0.5 0 0 1 97.775 92.225 L 97.775 79.225 A 0.5 0.5 0 0 1 98.275 78.725 Z M 126.85 78.725 L 139.85 78.725 A 0.5 0.5 0 0 1 140.35 79.225 L 140.35 92.225 A 0.5 0.5 0 0 1 139.85 92.725 L 126.85 92.725 A 0.5 0.5 0 0 1 126.35 92.225 L 126.35 79.225 A 0.5 0.5 0 0 1 126.85 78.725 Z M 12.55 2.525 L 25.55 2.525 A 0.5 0.5 0 0 1 26.05 3.025 L 26.05 16.025 A 0.5 0.5 0 0 1 25.55 16.525 L 12.55 16.525 A 0.5 0.5 0 0 1 12.05 16.025 L 12.05 3.025 A 0.5 0.5 0 0 1 12.55 2.525 Z M 31.6 2.525 L 44.6 2.525 A 0.5 0.5 0 0 1 45.1 3.025 L 45.1 16.025 A 0.5 0.5 0 0 1 44.6 16.525 L 31.6 16.525 A 0.5 0.5 0 0 1 31.1 16.025 L 31.1 3.025 A 0.5 0.5 0 0 1 31.6 2.525 Z M 50.65 2.525 L 63.65 2.525 A 0.5 0.5 0 0 1 64.15 3.025 L 64.15 16.025 A 0.5 0.5 0 0 1 63.65 16.525 L 50.65 16.525 A 0.5 0.5 0 0 1 50.15 16.025 L 50.15 3.025 A 0.5 0.5 0 0 1 50.65 2.525 Z M 69.7 2.525 L 82.7 2.525 A 0.5 0.5 0 0 1 83.2 3.025 L 83.2 16.025 A 0.5 0.5 0 0 1 82.7 16.525 L 69.7 16.525 A 0.5 0.5 0 0 1 69.2 16.025 L 69.2 3.025 A 0.5 0.5 0 0 1 69.7 2.525 Z M 88.75 2.525 L 101.75 2.525 A 0.5 0.5 0 0 1 102.25 3.025 L 102.25 16.025 A 0.5 0.5 0 0 1 101.75 16.525 L 88.75 16.525 A 0.5 0.5 0 0 1 88.25 16.025 L 88.25 3.025 A 0.5 0.5 0 0 1 88.75 2.525 Z M 107.8 2.525 L 120.8 2.525 A 0.5 0.5 0 0 1 121.3 3.025 L 121.3 16.025 A 0.5 0.5 0 0 1 120.8 16.525 L 107.8 16.525 A 0.5 0.5 0 0 1 107.3 16.025 L 107.3 3.025 A 0.5 0.5 0 0 1 107.8 2.525 Z M 126.85 2.525 L 139.85 2.525 A 0.5 0.5 0 0 1 140.35 3.025 L 140.35 16.025 A 0.5 0.5 0 0 1 139.85 16.525 L 126.85 16.525 A 0.5 0.5 0 0 1 126.35 16.025 L 126.35 3.025 A 0.5 0.5 0 0 1 126.85 2.525 Z M 127.35 48.212 L 127.35 42.212 A 0.5 0.5 0 0 1 127.85 41.712 L 141.85 41.712 A 0.5 0.5 0 0 1 142.35 42.212 L 142.35 48.212 A 0.5 0.5 0 0 1 141.85 48.712 L 127.85 48.712 A 0.5 0.5 0 0 1 127.35 48.212 Z M 127.35 72.088 L 127.35 66.088 A 0.5 0.5 0 0 1 127.85 65.588 L 141.85 65.588 A 0.5 0.5 0 0 1 142.35 66.088 L 142.35 72.088 A 0.5 0.5 0 0 1 141.85 72.588 L 127.85 72.588 A 0.5 0.5 0 0 1 127.35 72.088 Z M 89.837 79.725 L 95.837 79.725 A 0.5 0.5 0 0 1 96.337 80.225 L 96.337 94.225 A 0.5 0.5 0 0 1 95.837 94.725 L 89.837 94.725 A 0.5 0.5 0 0 1 89.337 94.225 L 89.337 80.225 A 0.5 0.5 0 0 1 89.837 79.725 Z M 113.713 79.725 L 119.713 79.725 A 0.5 0.5 0 0 1 120.213 80.225 L 120.213 94.225 A 0.5 0.5 0 0 1 119.713 94.725 L 113.713 94.725 A 0.5 0.5 0 0 1 113.213 94.225 L 113.213 80.225 A 0.5 0.5 0 0 1 113.713 79.725 Z" vector-effect="non-scaling-stroke"/></g></svg>